<?xml version="1.0" encoding="UTF-8"?>
<!DOCTYPE svg
PUBLIC "-//W3C//DTD SVG 1.1//EN"
       "http://www.w3.org/Graphics/SVG/1.1/DTD/svg11.dtd">
<svg viewBox="52 -8 827 529" width="775px" height="537px" xmlns="http://www.w3.org/2000/svg" version="1.1">
   <line x1="376" y1="78" x2="366" y2="78" style="stroke:#cb0;stroke-width:1;"/>
   <line x1="157" y1="106" x2="147" y2="106" style="stroke:#cb0;stroke-width:1;"/>
   <line x1="366" y1="78" x2="157" y2="106" style="stroke:#cb0;stroke-width:1;"/>
   <line x1="368.5" y1="78" x2="372.03553390593" y2="81.535533905933" style="stroke:#cb0;stroke-width:2;"/>
   <line x1="368.5" y1="78" x2="372.03553390593" y2="74.464466094067" style="stroke:#cb0;stroke-width:2;"/>
   <line x1="152" y1="106" x2="155.53553390593" y2="109.53553390593" style="stroke:#cb0;stroke-width:2;"/>
   <line x1="152" y1="106" x2="155.53553390593" y2="102.46446609407" style="stroke:#cb0;stroke-width:2;"/>
   <line x1="376" y1="98" x2="366" y2="98" style="stroke:#c00;stroke-width:1;"/>
   <line x1="157" y1="106" x2="147" y2="106" style="stroke:#c00;stroke-width:1;"/>
   <line x1="366" y1="98" x2="157" y2="106" style="stroke:#c00;stroke-width:1;"/>
   <line x1="368.5" y1="98" x2="372.03553390593" y2="101.53553390593" style="stroke:#c00;stroke-width:2;"/>
   <line x1="368.5" y1="98" x2="372.03553390593" y2="94.464466094067" style="stroke:#c00;stroke-width:2;"/>
   <line x1="152" y1="106" x2="155.53553390593" y2="109.53553390593" style="stroke:#c00;stroke-width:2;"/>
   <line x1="152" y1="106" x2="155.53553390593" y2="102.46446609407" style="stroke:#c00;stroke-width:2;"/>
   <line x1="70" y1="298" x2="60" y2="298" style="stroke:#cb0;stroke-width:1;"/>
   <line x1="60" y1="238" x2="70" y2="238" style="stroke:#cb0;stroke-width:1;"/>
   <line x1="60" y1="298" x2="60" y2="238" style="stroke:#cb0;stroke-width:1;"/>
   <line x1="62.5" y1="298" x2="66.035533905933" y2="301.53553390593" style="stroke:#cb0;stroke-width:2;"/>
   <line x1="62.5" y1="298" x2="66.035533905933" y2="294.46446609407" style="stroke:#cb0;stroke-width:2;"/>
   <line x1="65" y1="238" x2="61.464466094067" y2="241.53553390593" style="stroke:#cb0;stroke-width:2;"/>
   <line x1="65" y1="238" x2="61.464466094067" y2="234.46446609407" style="stroke:#cb0;stroke-width:2;"/>
   <line x1="375" y1="422" x2="365" y2="422" style="stroke:#c00;stroke-width:1;"/>
   <line x1="165" y1="464" x2="155" y2="464" style="stroke:#c00;stroke-width:1;"/>
   <line x1="365" y1="422" x2="165" y2="464" style="stroke:#c00;stroke-width:1;"/>
   <line x1="367.5" y1="422" x2="371.03553390593" y2="425.53553390593" style="stroke:#c00;stroke-width:2;"/>
   <line x1="367.5" y1="422" x2="371.03553390593" y2="418.46446609407" style="stroke:#c00;stroke-width:2;"/>
   <line x1="160" y1="464" x2="163.53553390593" y2="467.53553390593" style="stroke:#c00;stroke-width:2;"/>
   <line x1="160" y1="464" x2="163.53553390593" y2="460.46446609407" style="stroke:#c00;stroke-width:2;"/>
   <line x1="375" y1="362" x2="365" y2="362" style="stroke:#0bf;stroke-width:1;"/>
   <line x1="170" y1="360" x2="160" y2="360" style="stroke:#0bf;stroke-width:1;"/>
   <line x1="365" y1="362" x2="170" y2="360" style="stroke:#0bf;stroke-width:1;"/>
   <line x1="367.5" y1="362" x2="371.03553390593" y2="365.53553390593" style="stroke:#0bf;stroke-width:2;"/>
   <line x1="367.5" y1="362" x2="371.03553390593" y2="358.46446609407" style="stroke:#0bf;stroke-width:2;"/>
   <line x1="165" y1="360" x2="168.53553390593" y2="363.53553390593" style="stroke:#0bf;stroke-width:2;"/>
   <line x1="165" y1="360" x2="168.53553390593" y2="356.46446609407" style="stroke:#0bf;stroke-width:2;"/>
   <line x1="375" y1="402" x2="365" y2="402" style="stroke:#cb0;stroke-width:1;"/>
   <line x1="366" y1="38" x2="376" y2="38" style="stroke:#cb0;stroke-width:1;"/>
   <line x1="365" y1="402" x2="366" y2="38" style="stroke:#cb0;stroke-width:1;"/>
   <line x1="367.5" y1="402" x2="371.03553390593" y2="405.53553390593" style="stroke:#cb0;stroke-width:2;"/>
   <line x1="367.5" y1="402" x2="371.03553390593" y2="398.46446609407" style="stroke:#cb0;stroke-width:2;"/>
   <line x1="371" y1="38" x2="367.46446609407" y2="41.535533905933" style="stroke:#cb0;stroke-width:2;"/>
   <line x1="371" y1="38" x2="367.46446609407" y2="34.464466094067" style="stroke:#cb0;stroke-width:2;"/>
   <line x1="375" y1="502" x2="365" y2="502" style="stroke:#0bf;stroke-width:1;"/>
   <line x1="157" y1="106" x2="147" y2="106" style="stroke:#0bf;stroke-width:1;"/>
   <line x1="365" y1="502" x2="157" y2="106" style="stroke:#0bf;stroke-width:1;"/>
   <line x1="367.5" y1="502" x2="371.03553390593" y2="505.53553390593" style="stroke:#0bf;stroke-width:2;"/>
   <line x1="367.5" y1="502" x2="371.03553390593" y2="498.46446609407" style="stroke:#0bf;stroke-width:2;"/>
   <line x1="152" y1="106" x2="155.53553390593" y2="109.53553390593" style="stroke:#0bf;stroke-width:2;"/>
   <line x1="152" y1="106" x2="155.53553390593" y2="102.46446609407" style="stroke:#0bf;stroke-width:2;"/>
   <line x1="375" y1="302" x2="365" y2="302" style="stroke:#b0b;stroke-width:1;"/>
   <line x1="157" y1="106" x2="147" y2="106" style="stroke:#b0b;stroke-width:1;"/>
   <line x1="365" y1="302" x2="157" y2="106" style="stroke:#b0b;stroke-width:1;"/>
   <line x1="367.5" y1="302" x2="371.03553390593" y2="305.53553390593" style="stroke:#b0b;stroke-width:2;"/>
   <line x1="367.5" y1="302" x2="371.03553390593" y2="298.46446609407" style="stroke:#b0b;stroke-width:2;"/>
   <line x1="152" y1="106" x2="155.53553390593" y2="109.53553390593" style="stroke:#b0b;stroke-width:2;"/>
   <line x1="152" y1="106" x2="155.53553390593" y2="102.46446609407" style="stroke:#b0b;stroke-width:2;"/>
   <line x1="375" y1="322" x2="365" y2="322" style="stroke:#0bf;stroke-width:1;"/>
   <line x1="157" y1="106" x2="147" y2="106" style="stroke:#0bf;stroke-width:1;"/>
   <line x1="365" y1="322" x2="157" y2="106" style="stroke:#0bf;stroke-width:1;"/>
   <line x1="367.5" y1="322" x2="371.03553390593" y2="325.53553390593" style="stroke:#0bf;stroke-width:2;"/>
   <line x1="367.5" y1="322" x2="371.03553390593" y2="318.46446609407" style="stroke:#0bf;stroke-width:2;"/>
   <line x1="152" y1="106" x2="155.53553390593" y2="109.53553390593" style="stroke:#0bf;stroke-width:2;"/>
   <line x1="152" y1="106" x2="155.53553390593" y2="102.46446609407" style="stroke:#0bf;stroke-width:2;"/>
   <line x1="685" y1="238" x2="675" y2="238" style="stroke:#333;stroke-width:1;"/>
   <line x1="168" y1="238" x2="158" y2="238" style="stroke:#333;stroke-width:1;"/>
   <line x1="675" y1="238" x2="168" y2="238" style="stroke:#333;stroke-width:1;"/>
   <line x1="677.5" y1="238" x2="681.03553390593" y2="241.53553390593" style="stroke:#333;stroke-width:2;"/>
   <line x1="677.5" y1="238" x2="681.03553390593" y2="234.46446609407" style="stroke:#333;stroke-width:2;"/>
   <line x1="163" y1="238" x2="166.53553390593" y2="241.53553390593" style="stroke:#333;stroke-width:2;"/>
   <line x1="163" y1="238" x2="166.53553390593" y2="234.46446609407" style="stroke:#333;stroke-width:2;"/>
   <line x1="685" y1="218" x2="675" y2="218" style="stroke:#0b0;stroke-width:1;"/>
   <line x1="531" y1="282" x2="521" y2="282" style="stroke:#0b0;stroke-width:1;"/>
   <line x1="675" y1="218" x2="531" y2="282" style="stroke:#0b0;stroke-width:1;"/>
   <line x1="677.5" y1="218" x2="681.03553390593" y2="221.53553390593" style="stroke:#0b0;stroke-width:2;"/>
   <line x1="677.5" y1="218" x2="681.03553390593" y2="214.46446609407" style="stroke:#0b0;stroke-width:2;"/>
   <line x1="526" y1="282" x2="529.53553390593" y2="285.53553390593" style="stroke:#0b0;stroke-width:2;"/>
   <line x1="526" y1="282" x2="529.53553390593" y2="278.46446609407" style="stroke:#0b0;stroke-width:2;"/>
   <rect width="88" height="20" x="67" y="434" style="fill:#007;stroke:black;"/>
   <text width="88" height="20" x="72" y="448" style="fill:#fff;" font-family="Arial" font-size="16px"> agents</text>
   <rect width="88" height="20" x="67" y="454" style="fill:#aea;stroke:black;"/>
   <text width="88" height="20" x="72" y="468" style="fill:black;" font-family="Arial" font-size="16px">id</text>
   <rect width="88" height="20" x="67" y="474" style="fill:none;stroke:black;"/>
   <text width="88" height="20" x="72" y="488" style="fill:black;" font-family="Arial" font-size="16px">name</text>
   <rect width="88" height="20" x="67" y="494" style="fill:none;stroke:black;"/>
   <text width="88" height="20" x="72" y="508" style="fill:black;" font-family="Arial" font-size="16px">description</text>
   <rect width="119" height="20" x="72" y="7" style="fill:#007;stroke:black;"/>
   <text width="119" height="20" x="77" y="21" style="fill:#fff;" font-family="Arial" font-size="16px"> alembic_version</text>
   <rect width="119" height="20" x="72" y="27" style="fill:none;stroke:black;"/>
   <text width="119" height="20" x="77" y="41" style="fill:black;" font-family="Arial" font-size="16px">version_num</text>
   <rect width="84" height="20" x="76" y="330" style="fill:#007;stroke:black;"/>
   <text width="84" height="20" x="81" y="344" style="fill:#fff;" font-family="Arial" font-size="16px"> currencies</text>
   <rect width="84" height="20" x="76" y="350" style="fill:#aea;stroke:black;"/>
   <text width="84" height="20" x="81" y="364" style="fill:black;" font-family="Arial" font-size="16px">id</text>
   <rect width="84" height="20" x="76" y="370" style="fill:none;stroke:black;"/>
   <text width="84" height="20" x="81" y="384" style="fill:black;" font-family="Arial" font-size="16px">iso_4217</text>
   <rect width="84" height="20" x="76" y="390" style="fill:none;stroke:black;"/>
   <text width="84" height="20" x="81" y="404" style="fill:black;" font-family="Arial" font-size="16px">name</text>
   <rect width="122" height="20" x="376" y="8" style="fill:#007;stroke:black;"/>
   <text width="122" height="20" x="381" y="22" style="fill:#fff;" font-family="Arial" font-size="16px"> standing_orders</text>
   <rect width="122" height="20" x="376" y="28" style="fill:#aea;stroke:black;"/>
   <text width="122" height="20" x="381" y="42" style="fill:black;" font-family="Arial" font-size="16px">id</text>
   <rect width="122" height="20" x="376" y="48" style="fill:none;stroke:black;"/>
   <text width="122" height="20" x="381" y="62" style="fill:black;" font-family="Arial" font-size="16px">name</text>
   <rect width="122" height="20" x="376" y="68" style="fill:none;stroke:black;"/>
   <text width="122" height="20" x="381" y="82" style="fill:black;" font-family="Arial" font-size="16px">user_from_id</text>
   <rect width="122" height="20" x="376" y="88" style="fill:none;stroke:black;"/>
   <text width="122" height="20" x="381" y="102" style="fill:black;" font-family="Arial" font-size="16px">user_to_id</text>
   <rect width="122" height="20" x="376" y="108" style="fill:none;stroke:black;"/>
   <text width="122" height="20" x="381" y="122" style="fill:black;" font-family="Arial" font-size="16px">amount</text>
   <rect width="122" height="20" x="376" y="128" style="fill:none;stroke:black;"/>
   <text width="122" height="20" x="381" y="142" style="fill:black;" font-family="Arial" font-size="16px">note</text>
   <rect width="122" height="20" x="376" y="148" style="fill:none;stroke:black;"/>
   <text width="122" height="20" x="381" y="162" style="fill:black;" font-family="Arial" font-size="16px">rrule_str</text>
   <rect width="122" height="20" x="376" y="168" style="fill:none;stroke:black;"/>
   <text width="122" height="20" x="381" y="182" style="fill:black;" font-family="Arial" font-size="16px">dt_next_utc</text>
   <rect width="122" height="20" x="376" y="188" style="fill:none;stroke:black;"/>
   <text width="122" height="20" x="381" y="202" style="fill:black;" font-family="Arial" font-size="16px">dt_created_utc</text>
   <rect width="88" height="20" x="70" y="208" style="fill:#007;stroke:black;"/>
   <text width="88" height="20" x="75" y="222" style="fill:#fff;" font-family="Arial" font-size="16px"> tags</text>
   <rect width="88" height="20" x="70" y="228" style="fill:#aea;stroke:black;"/>
   <text width="88" height="20" x="75" y="242" style="fill:black;" font-family="Arial" font-size="16px">id</text>
   <rect width="88" height="20" x="70" y="248" style="fill:none;stroke:black;"/>
   <text width="88" height="20" x="75" y="262" style="fill:black;" font-family="Arial" font-size="16px">name</text>
   <rect width="88" height="20" x="70" y="268" style="fill:none;stroke:black;"/>
   <text width="88" height="20" x="75" y="282" style="fill:black;" font-family="Arial" font-size="16px">description</text>
   <rect width="88" height="20" x="70" y="288" style="fill:none;stroke:black;"/>
   <text width="88" height="20" x="75" y="302" style="fill:black;" font-family="Arial" font-size="16px">parent_id</text>
   <rect width="146" height="20" x="375" y="252" style="fill:#007;stroke:black;"/>
   <text width="146" height="20" x="380" y="266" style="fill:#fff;" font-family="Arial" font-size="16px"> transactions</text>
   <rect width="146" height="20" x="375" y="272" style="fill:#aea;stroke:black;"/>
   <text width="146" height="20" x="380" y="286" style="fill:black;" font-family="Arial" font-size="16px">id</text>
   <rect width="146" height="20" x="375" y="292" style="fill:none;stroke:black;"/>
   <text width="146" height="20" x="380" y="306" style="fill:black;" font-family="Arial" font-size="16px">user_from_id</text>
   <rect width="146" height="20" x="375" y="312" style="fill:none;stroke:black;"/>
   <text width="146" height="20" x="380" y="326" style="fill:black;" font-family="Arial" font-size="16px">user_to_id</text>
   <rect width="146" height="20" x="375" y="332" style="fill:none;stroke:black;"/>
   <text width="146" height="20" x="380" y="346" style="fill:black;" font-family="Arial" font-size="16px">original_amount</text>
   <rect width="146" height="20" x="375" y="352" style="fill:none;stroke:black;"/>
   <text width="146" height="20" x="380" y="366" style="fill:black;" font-family="Arial" font-size="16px">original_currency_id</text>
   <rect width="146" height="20" x="375" y="372" style="fill:none;stroke:black;"/>
   <text width="146" height="20" x="380" y="386" style="fill:black;" font-family="Arial" font-size="16px">converted_amount</text>
   <rect width="146" height="20" x="375" y="392" style="fill:none;stroke:black;"/>
   <text width="146" height="20" x="380" y="406" style="fill:black;" font-family="Arial" font-size="16px">standing_order_id</text>
   <rect width="146" height="20" x="375" y="412" style="fill:none;stroke:black;"/>
   <text width="146" height="20" x="380" y="426" style="fill:black;" font-family="Arial" font-size="16px">agent_id</text>
   <rect width="146" height="20" x="375" y="432" style="fill:none;stroke:black;"/>
   <text width="146" height="20" x="380" y="446" style="fill:black;" font-family="Arial" font-size="16px">note</text>
   <rect width="146" height="20" x="375" y="452" style="fill:none;stroke:black;"/>
   <text width="146" height="20" x="380" y="466" style="fill:black;" font-family="Arial" font-size="16px">dt_created_utc</text>
   <rect width="146" height="20" x="375" y="472" style="fill:none;stroke:black;"/>
   <text width="146" height="20" x="380" y="486" style="fill:black;" font-family="Arial" font-size="16px">dt_due_utc</text>
   <rect width="146" height="20" x="375" y="492" style="fill:none;stroke:black;"/>
   <text width="146" height="20" x="380" y="506" style="fill:black;" font-family="Arial" font-size="16px">user_created_id</text>
   <rect width="127" height="20" x="685" y="188" style="fill:#007;stroke:black;"/>
   <text width="127" height="20" x="690" y="202" style="fill:#fff;" font-family="Arial" font-size="16px"> transactions_tags</text>
   <rect width="127" height="20" x="685" y="208" style="fill:#aea;stroke:black;"/>
   <text width="127" height="20" x="690" y="222" style="fill:black;" font-family="Arial" font-size="16px">transaction_id</text>
   <rect width="127" height="20" x="685" y="228" style="fill:#aea;stroke:black;"/>
   <text width="127" height="20" x="690" y="242" style="fill:black;" font-family="Arial" font-size="16px">tag_id</text>
   <rect width="66" height="20" x="81" y="76" style="fill:#007;stroke:black;"/>
   <text width="66" height="20" x="86" y="90" style="fill:#fff;" font-family="Arial" font-size="16px"> users</text>
   <rect width="66" height="20" x="81" y="96" style="fill:#aea;stroke:black;"/>
   <text width="66" height="20" x="86" y="110" style="fill:black;" font-family="Arial" font-size="16px">id</text>
   <rect width="66" height="20" x="81" y="116" style="fill:none;stroke:black;"/>
   <text width="66" height="20" x="86" y="130" style="fill:black;" font-family="Arial" font-size="16px">name</text>
   <rect width="66" height="20" x="81" y="136" style="fill:none;stroke:black;"/>
   <text width="66" height="20" x="86" y="150" style="fill:black;" font-family="Arial" font-size="16px">balance</text>
</svg>
